<svg xmlns="http://www.w3.org/2000/svg" xmlns:xlink="http://www.w3.org/1999/xlink" width="48" height="48" preserveAspectRatio="xMidYMid meet" viewBox="0 0 48 48" style="-ms-transform: rotate(360deg); -webkit-transform: rotate(360deg); transform: rotate(360deg);"><g fill="none" stroke="#000" stroke-width="4" stroke-linejoin="round"><path d="M36 8H13c-3 0-9 2-9 8s6 8 9 8h22c3 0 9 2 9 8s-6 8-9 8H12" stroke-linecap="round"/><path d="M40 12a4 4 0 1 0 0-8a4 4 0 0 0 0 8zM8 44a4 4 0 1 0 0-8a4 4 0 0 0 0 8z" fill="#2F88FF"/></g><rect x="0" y="0" width="48" height="48" fill="rgba(0, 0, 0, 0)" /></svg>